<svg width="10" height="18" viewBox="0 0 10 18" fill="none" xmlns="http://www.w3.org/2000/svg">
<path d="M1.54492 6.00084C1.17626 6.34782 0.596129 6.33024 0.249155 5.96158C-0.0978181 5.59292 -0.0802383 5.01278 0.288421 4.66581L4.18425 0.999144C4.53722 0.666943 5.08779 0.666943 5.44076 0.999144L9.33659 4.66581C9.70525 5.01278 9.72283 5.59292 9.37585 5.96158C9.02888 6.33024 8.44875 6.34782 8.08009 6.00084L4.8125 2.92547L1.54492 6.00084ZM1.54492 11.9991L4.8125 15.0745L8.08008 11.9991C8.44874 11.6522 9.02888 11.6698 9.37585 12.0384C9.72283 12.4071 9.70524 12.9872 9.33659 13.3342L5.44075 17.0008C5.08779 17.3331 4.53721 17.3331 4.18425 17.0008L0.288418 13.3342C-0.080241 12.9872 -0.0978208 12.4071 0.249153 12.0384C0.596126 11.6698 1.17626 11.6522 1.54492 11.9991Z" fill="#222222"/>
</svg>
