<svg width="20" height="6" viewBox="0 0 20 6" fill="none" xmlns="http://www.w3.org/2000/svg">
<path d="M3.08333 5.58332C1.63667 5.58332 0.5 4.42082 0.5 2.99999C0.5 1.57916 1.6625 0.416656 3.08333 0.416656C4.50417 0.416656 5.66667 1.57916 5.66667 2.99999C5.66667 4.42082 4.53 5.58332 3.08333 5.58332Z" fill="#212121"/>
<path d="M10.25 5.58332C8.80333 5.58332 7.66666 4.42082 7.66666 2.99999C7.66666 1.57916 8.82916 0.416656 10.25 0.416656C11.6708 0.416656 12.8333 1.57916 12.8333 2.99999C12.8333 4.42082 11.6967 5.58332 10.25 5.58332Z" fill="#212121"/>
<path d="M17.4167 5.58332C15.97 5.58332 14.8333 4.42082 14.8333 2.99999C14.8333 1.57916 15.9958 0.416656 17.4167 0.416656C18.8375 0.416656 20 1.57916 20 2.99999C20 4.42082 18.8633 5.58332 17.4167 5.58332Z" fill="#212121"/>
</svg>
