<svg width="20" height="20" viewBox="0 0 20 20" fill="none" xmlns="http://www.w3.org/2000/svg">
<path d="M6.25001 12.7083C6.09167 12.7083 5.93334 12.65 5.80834 12.525C5.56667 12.2833 5.56667 11.8833 5.80834 11.6417L8.47501 8.975C8.60834 8.84166 8.78334 8.775 8.97501 8.79166C9.15834 8.80833 9.32501 8.90833 9.43334 9.06666L10.3417 10.4333L13.3 7.475C13.5417 7.23333 13.9417 7.23333 14.1833 7.475C14.425 7.71666 14.425 8.11666 14.1833 8.35833L10.6833 11.8583C10.55 11.9917 10.375 12.0583 10.1833 12.0417C10 12.025 9.83334 11.925 9.72501 11.7667L8.81667 10.4L6.69167 12.525C6.56667 12.65 6.40834 12.7083 6.25001 12.7083Z" fill="#222222"/>
<path d="M13.75 10.2083C13.4083 10.2083 13.125 9.92501 13.125 9.58334V8.54167H12.0833C11.7417 8.54167 11.4583 8.25834 11.4583 7.91667C11.4583 7.57501 11.7417 7.29167 12.0833 7.29167H13.75C14.0917 7.29167 14.375 7.57501 14.375 7.91667V9.58334C14.375 9.92501 14.0917 10.2083 13.75 10.2083Z" fill="#222222"/>
<path d="M12.5 18.9583H7.5C2.975 18.9583 1.04167 17.025 1.04167 12.5V7.5C1.04167 2.975 2.975 1.04167 7.5 1.04167H12.5C17.025 1.04167 18.9583 2.975 18.9583 7.5V12.5C18.9583 17.025 17.025 18.9583 12.5 18.9583ZM7.5 2.29167C3.65834 2.29167 2.29167 3.65834 2.29167 7.5V12.5C2.29167 16.3417 3.65834 17.7083 7.5 17.7083H12.5C16.3417 17.7083 17.7083 16.3417 17.7083 12.5V7.5C17.7083 3.65834 16.3417 2.29167 12.5 2.29167H7.5Z" fill="#222222"/>
</svg>
